<svg width="274" height="224" viewBox="0 0 274 224" fill="none" xmlns="http://www.w3.org/2000/svg">
<path fill-rule="evenodd" clip-rule="evenodd" d="M273.104 173.978C273.104 169.168 272.09 156.843 259.278 156.843C248.273 156.843 232.329 164.364 217.977 164.364C197.027 164.364 190.378 147.295 184.567 130.395L205.575 112L176.65 110.895C176.383 110.388 176.111 109.881 175.831 109.368L208.981 73.676L137.572 71.791C117.129 59.2135 99.4495 52.7265 80.5085 52.7265C33.325 52.7265 0.896484 95.334 0.896484 132.8C0.896484 179.983 24.355 216.039 24.355 216.039L255.215 213.523C255.215 213.523 273.104 192.906 273.104 173.978Z" fill="#FBF4EB"/>
<path fill-rule="evenodd" clip-rule="evenodd" d="M245.51 134.653C239.264 134.653 211.301 148.368 211.301 155.875C211.301 158.04 213.829 159.509 220.401 159.509C238.276 159.509 253.304 154.172 253.304 144.422C253.278 141.042 251.146 134.653 245.51 134.653Z" fill="#FBF4EB"/>
<path fill-rule="evenodd" clip-rule="evenodd" d="M28.6964 93.579H28.4884C26.8244 93.579 25.4724 94.593 25.4724 96.101C25.4603 96.4232 25.5122 96.7447 25.6252 97.0468C25.7382 97.3488 25.91 97.6255 26.1307 97.8606C26.3513 98.0958 26.6165 98.2849 26.9108 98.4169C27.205 98.5488 27.5225 98.6211 27.8449 98.6295C28.2492 98.6226 28.6485 98.5387 29.0214 98.3825C29.0214 98.3825 30.8284 99.325 31.9269 103.14C31.9269 103.14 37.5689 106.657 40.5654 107.079C40.5654 107.079 38.1279 102.841 38.1279 100.917V100.826C38.1279 100.826 40.6629 100.092 40.6629 99.182C40.6629 98.857 37.9004 89.965 37.9004 89.965C37.9004 89.965 36.6004 90.9985 35.8789 90.9985C35.7908 91.0008 35.7036 90.9806 35.6254 90.94C35.6254 90.94 35.0339 92.032 34.3254 92.032C34.1688 92.0307 34.0157 91.9857 33.8834 91.902C33.8834 91.902 32.9084 93.267 31.9854 93.267C31.8833 93.2692 31.7818 93.2515 31.6864 93.215C31.602 93.6211 31.5606 94.0351 31.5629 94.45C31.5516 95.14 31.6868 95.8245 31.9594 96.4585L31.2119 96.9135C31.2119 96.9135 30.5164 94.281 28.6964 93.579Z" fill="#F6A88A"/>
<path fill-rule="evenodd" clip-rule="evenodd" d="M44.1543 109.77L74.2428 108.555L73.9503 115.302L72.9753 115.425L70.9538 131.571L47.8593 131.825L45.7468 116.68L45.0513 116.875L44.1543 109.77Z" fill="#E35B5B"/>
<path fill-rule="evenodd" clip-rule="evenodd" d="M59.734 132.15C59.734 132.15 60.293 132.182 61.1315 132.182C70.4915 132.182 68.8665 127.301 70.3485 127.301C70.589 127.301 70.9465 127.827 70.9465 128.49C70.9465 129.862 69.6465 131.181 69.6465 131.578C69.6465 131.708 69.744 131.76 69.9 131.76C70.5974 131.637 71.2524 131.339 71.8045 130.895C72.8315 130.122 72.9225 129.264 73.7935 128.484C74.0875 128.166 74.4562 127.927 74.866 127.788C74.944 127.788 74.983 127.827 74.983 127.925C74.4355 129.413 73.7179 130.833 72.8445 132.156C72.7736 132.266 72.6954 132.37 72.6105 132.468C72.6105 132.423 74.528 129.309 75.659 129.309C75.75 129.309 75.802 129.348 75.802 129.439C75.802 130.044 73.254 132.689 72.3765 133.989C72.0255 134.522 71.772 134.581 71.1285 134.581H70.4785C66.6825 134.581 58.668 137.532 58.668 137.532C58.9195 135.719 59.2754 133.922 59.734 132.15Z" fill="#F6A88A"/>
<path fill-rule="evenodd" clip-rule="evenodd" d="M38.1272 100.95V100.807H38.0688C37.6658 100.807 35.4688 101.041 35.4688 101.041L38.4717 102.491C38.2715 102 38.155 101.479 38.1272 100.95Z" fill="#E27C6B"/>
<path fill-rule="evenodd" clip-rule="evenodd" d="M26.6027 96.0685C26.5834 96.0705 26.5639 96.0682 26.5457 96.0617C26.5274 96.0553 26.5108 96.0448 26.4971 96.0311C26.4834 96.0174 26.4729 96.0008 26.4664 95.9825C26.46 95.9642 26.4577 95.9447 26.4597 95.9255C26.5265 95.6525 26.6849 95.4106 26.9085 95.2403C27.132 95.0699 27.4073 94.9814 27.6882 94.9895C28.194 95.0231 28.6718 95.2336 29.0378 95.5842C29.4039 95.9348 29.6348 96.4031 29.6902 96.907C29.6902 96.985 29.6902 97.102 29.6447 97.102C29.4692 97.102 29.5537 96.296 28.5722 95.7565C28.3815 95.8584 28.2191 96.0062 28.1 96.1867C27.9808 96.3672 27.9085 96.5745 27.8897 96.79C27.9302 97.0617 28.0021 97.3279 28.1042 97.583C28.1042 97.583 28.1042 97.635 28.0457 97.635C27.8637 97.635 27.5777 97.232 27.5777 96.803C27.6627 96.3327 27.8539 95.8881 28.1367 95.503C28.002 95.4329 27.853 95.3951 27.7012 95.3925C27.0967 95.412 27.0772 96.0685 26.6027 96.0685Z" fill="#E27C6B"/>
<path fill-rule="evenodd" clip-rule="evenodd" d="M27.9879 94.0145C27.4091 94.0218 26.8493 94.222 26.3972 94.5835C25.9451 94.945 25.6265 95.447 25.492 96.01C25.492 96.01 22.502 93.813 22.502 93.1435C22.502 92.2985 24.5235 90.9985 24.5235 90.9985C23.9032 90.0168 23.5204 88.904 23.4055 87.7485C23.4055 84.6025 29.301 85.48 34.1435 84.8495C34.9791 84.7285 35.8213 84.659 36.6655 84.6415C38.3165 84.6415 39.5905 85.064 39.5905 86.663C39.5905 86.832 39.5905 87.0075 39.5905 87.5275C39.5905 88.0475 39.5905 88.5415 39.5905 88.9445C39.5905 89.9975 39.428 90.615 38.2905 91.148L37.8745 90.069C37.8745 90.069 36.672 91.369 36.1065 91.369C35.983 91.369 35.892 91.304 35.8465 91.1415C35.8465 91.1415 35.008 92.3375 34.41 92.3375C34.3209 92.3358 34.2346 92.3068 34.1625 92.2545C34.0905 92.2022 34.0362 92.1291 34.007 92.045C34.007 92.045 33.0775 93.449 32.2325 93.449C32.0491 93.4485 31.8727 93.3789 31.7385 93.254C31.6823 93.6589 31.6541 94.0672 31.6539 94.476C31.6259 95.1445 31.7481 95.8108 32.0115 96.426L31.1795 96.881C31.1795 96.881 30.146 94.0145 27.9879 94.0145Z" fill="#AB4A55"/>
<path fill-rule="evenodd" clip-rule="evenodd" d="M32.1086 96.634L31.2441 97.05L31.3546 97.3035L32.2191 96.803L32.1086 96.634Z" fill="#AB4A55"/>
<path fill-rule="evenodd" clip-rule="evenodd" d="M36.4957 95.568C35.7742 95.568 34.6172 96.179 34.6172 96.6275C34.6172 96.7055 34.6172 96.8355 35.0592 96.8355C35.7547 96.8355 37.0547 96.439 37.0547 95.945C37.0547 95.8605 36.9962 95.568 36.4957 95.568Z" fill="#E27C6B"/>
<path fill-rule="evenodd" clip-rule="evenodd" d="M31.9911 103.16C31.9911 103.16 37.5876 106.618 40.5256 107.06L40.9156 111.805C40.9156 111.805 33.5251 108.171 31.7051 106.605L31.9911 103.16Z" fill="#ECE7D0"/>
<path fill-rule="evenodd" clip-rule="evenodd" d="M40.5846 107.047L43.7761 110.173L42.0991 107.164L39.7656 105.617C39.991 106.119 40.2654 106.598 40.5846 107.047Z" fill="#ECE7D0"/>
<path fill-rule="evenodd" clip-rule="evenodd" d="M37.1074 145.683L55.6259 142.303L55.9769 140.353L58.1674 140.918L58.8174 137.415L60.9624 136.765C60.9624 136.765 68.6389 174.036 68.6389 178.41C68.6389 184.163 67.8069 201.017 67.8069 201.017H57.6539C57.6539 201.017 56.8284 180.445 56.8284 178.332V178.3L55.0669 170.5C55.0669 170.5 54.8069 178.82 54.4169 180.932C52.7139 190.903 46.9549 204.085 46.9549 204.085L38.2969 198.58C38.2969 198.58 43.2434 181.68 43.9584 180.698C43.6593 180.433 43.4655 180.068 43.4124 179.671C43.4124 179.19 44.0624 179.145 44.0624 179.145C44.0624 179.145 37.3089 147.184 37.1074 145.683Z" fill="#85B6C5"/>
<path fill-rule="evenodd" clip-rule="evenodd" d="M31.7 106.495C31.7 106.495 29.6005 109.628 27.8715 112.247C26.1425 114.867 23.6465 117.623 23.6465 118.279C23.6465 118.474 24.875 120.996 30.4325 130.233C33.5005 135.329 37.1145 145.67 37.1145 145.67L61.7755 141.289L61.015 136.739L55.3405 138.494L56.1985 131.533L47.833 131.188L46.065 116.622L44.9925 116.739L44.206 109.907L48.6195 109.699L47.3195 108.035L42.1195 107.197L43.1725 109.368L40.5335 107.015L40.67 111.214C40.67 111.214 34.6705 108.75 31.7 106.495Z" fill="#F6C15C"/>
<path fill-rule="evenodd" clip-rule="evenodd" d="M55.0996 139.989L58.2261 141.042L59.8771 131.942C59.8771 131.454 56.1981 131.337 56.1981 131.337C56.1981 131.337 55.2036 138.097 55.0996 139.989Z" fill="#ECE7D0"/>
<path fill-rule="evenodd" clip-rule="evenodd" d="M47.3505 204.125L38.062 198.333L36.5215 201.785L45.862 207.55L47.3505 204.125Z" fill="#B6DCE8"/>
<path fill-rule="evenodd" clip-rule="evenodd" d="M68.1896 200.939H57.4061L56.9121 205.21L68.5211 204.911L68.1896 200.939Z" fill="#B6DCE8"/>
<path fill-rule="evenodd" clip-rule="evenodd" d="M39.4479 203.572C39.3829 203.572 38.0764 206.425 36.6919 208.694C35.5999 210.488 34.5469 211.905 34.5469 211.905C34.5469 211.905 35.3009 215.044 38.5639 215.044C39.1944 215.038 39.8207 214.939 40.4229 214.752L44.6999 206.796L39.4479 203.572Z" fill="#343536"/>
<path fill-rule="evenodd" clip-rule="evenodd" d="M61.041 205.125C61.041 205.125 61.574 210.026 61.574 213.614V213.926C62.2774 214.142 63.0094 214.249 63.745 214.245C65.0645 214.269 66.3551 213.858 67.4175 213.075C67.4175 213.075 67.0145 206.341 66.9105 204.95L61.041 205.125Z" fill="#343536"/>
<path fill-rule="evenodd" clip-rule="evenodd" d="M55.0988 170.5C55.0013 170.103 53.7988 153.067 53.7988 153.067C53.7988 153.067 57.4128 170.214 57.4128 173.217C57.3735 174.943 57.1777 176.661 56.8278 178.352C56.8278 178.352 55.8593 173.912 55.0988 170.5Z" fill="#548492"/>
<path fill-rule="evenodd" clip-rule="evenodd" d="M50.1016 143.356L61.8666 141.679L61.7886 141.269C61.7886 141.269 51.3626 143.161 50.1016 143.356Z" fill="#548492"/>
<path fill-rule="evenodd" clip-rule="evenodd" d="M48.4767 109.731L46.5722 93.0654L45.7857 92.9679L45.2852 86.988L73.5862 86.338L73.7747 92.3569L72.9947 92.4284L72.2407 108.678L48.4767 109.731Z" fill="#E7AD79"/>
<path fill-rule="evenodd" clip-rule="evenodd" d="M34.5785 211.938C34.5785 211.938 35.404 215.018 38.5695 215.018C39.1962 215.01 39.8182 214.909 40.4155 214.719C41.1167 215.943 41.9683 217.074 42.9505 218.086C44.6275 219.835 45.505 220.602 45.505 220.602H45.349C44.762 220.594 44.1806 220.718 43.6482 220.965C43.1159 221.213 42.6463 221.578 42.2745 222.032C42.2745 222.032 39.5575 220.206 36.4245 218.366C33.2915 216.527 31.582 215.408 31.582 215.408L34.5785 211.938Z" fill="#498851"/>
<path fill-rule="evenodd" clip-rule="evenodd" d="M63.2436 214.115C62.6895 214.119 62.1371 214.053 61.5991 213.92L60.4941 220.075C60.4941 220.075 62.3596 220.212 66.3441 220.375L73.3056 220.641C73.3056 220.641 74.6056 218.828 75.6326 218.75C74.2149 218.108 72.8386 217.378 71.5116 216.566C70.0504 215.502 68.6707 214.331 67.3841 213.062C66.1046 213.73 64.6869 214.091 63.2436 214.115Z" fill="#498851"/>
<path fill-rule="evenodd" clip-rule="evenodd" d="M31.6353 215.408L29.9453 217.456C29.9453 217.456 40.7028 222.825 42.1848 223.956L47.7553 223.858C47.7605 223.761 47.7605 223.663 47.7553 223.566C47.7553 220.413 45.2138 220.602 44.9473 220.602C42.6333 220.602 42.0288 221.785 42.0288 221.785L31.6353 215.408Z" fill="#ECE7D0"/>
<path fill-rule="evenodd" clip-rule="evenodd" d="M60.5065 220.082L60.1035 223.592L79.0445 222.851C79.3633 222.431 79.5408 221.922 79.5515 221.395C79.5515 219.952 77.2245 218.71 75.983 218.71C74.5985 218.71 73.2855 220.602 73.2855 220.602L60.5065 220.082Z" fill="#ECE7D0"/>
<path fill-rule="evenodd" clip-rule="evenodd" d="M61.0273 136.745L58.8563 137.395C58.8563 137.395 58.2518 140.983 58.2063 140.983C57.1688 140.694 56.1469 140.351 55.1448 139.956C55.1338 139.907 55.1338 139.856 55.1448 139.807C55.1448 139.501 55.2293 138.845 55.2293 138.845C55.2293 138.845 41.9693 139.768 40.6368 140.054C40.6368 140.054 35.3913 133.554 33.1293 131.298C30.8673 129.043 27.6758 125.448 27.6758 125.448C27.6758 125.448 31.1598 131.337 32.2258 133.534C33.2918 135.731 37.1268 145.676 37.1268 145.676L61.8268 141.25L61.0273 136.745Z" fill="#F6A65C"/>
<path fill-rule="evenodd" clip-rule="evenodd" d="M51.9794 143.044C51.9794 143.044 38.9014 146.352 37.3154 146.944L37.127 145.644L51.9794 143.044Z" fill="#548492"/>
<path fill-rule="evenodd" clip-rule="evenodd" d="M47.9041 131.207L41.4691 131.643L43.1981 130.603L35.9961 121.36C35.9961 121.36 43.2566 129.29 44.4461 129.29C45.5381 129.29 45.6161 120.84 45.6161 118.422V117.772L44.6606 117.609L43.7051 110.609L44.2836 110.498L45.2326 116.706L46.0516 116.621L47.9041 131.207Z" fill="#F6A65C"/>
<path d="M46.6503 120.677C46.6345 120.677 46.6192 120.672 46.6065 120.663C46.5937 120.653 46.5841 120.64 46.5788 120.625C44.0178 113.813 40.5078 107.216 40.5078 107.112C40.5077 107.091 40.5158 107.07 40.5302 107.054C40.5447 107.039 40.5645 107.029 40.5858 107.027C40.9108 107.027 46.7348 120.027 46.7348 120.593C46.7348 120.615 46.7259 120.637 46.7101 120.653C46.6942 120.669 46.6727 120.677 46.6503 120.677Z" fill="#AB4A55"/>
<path fill-rule="evenodd" clip-rule="evenodd" d="M59.8188 132.15C59.8216 132.169 59.8216 132.189 59.8188 132.208C59.8188 132.689 59.5913 136.108 59.5913 137.018C59.5913 137.083 59.5913 137.135 59.5913 137.174L58.8438 137.402C58.8438 137.402 59.8123 132.15 59.8188 132.15Z" fill="#E27C6B"/>
<path d="M45.3504 116.719C45.3396 116.72 45.3288 116.719 45.3185 116.715C45.3083 116.711 45.2989 116.706 45.291 116.699C45.283 116.691 45.2767 116.682 45.2724 116.672C45.2681 116.662 45.2658 116.652 45.2659 116.641C45.265 116.629 45.2665 116.618 45.2703 116.607C45.2742 116.596 45.2803 116.586 45.2882 116.577C45.2961 116.568 45.3058 116.562 45.3165 116.557C45.3272 116.552 45.3387 116.55 45.3504 116.55L72.9559 115.334L73.9114 115.191C73.9326 115.193 73.9525 115.203 73.967 115.218C73.9814 115.234 73.9894 115.255 73.9894 115.276C73.9896 115.295 73.9832 115.313 73.9713 115.327C73.9594 115.341 73.9427 115.351 73.9244 115.354L72.9624 115.497L45.3504 116.719Z" fill="#AB4A55"/>
<path d="M56.166 120.04C55.802 120.04 54.6905 120.04 54.6775 118.916C54.6775 118.266 54.502 116.316 54.502 116.316C54.5019 116.296 54.5092 116.277 54.5225 116.263C54.5357 116.249 54.5539 116.24 54.5735 116.238C54.5949 116.236 54.6162 116.242 54.6331 116.256C54.65 116.269 54.6612 116.288 54.6645 116.31C54.8855 119.189 54.5475 119.91 56.166 119.91C56.3935 119.91 56.7445 119.911 61.0735 119.449C62.64 119.28 63.42 119.397 63.42 118.227C63.42 117.993 63.2705 116.686 63.2705 115.991C63.2704 115.97 63.2784 115.949 63.2929 115.933C63.3073 115.918 63.3272 115.908 63.3485 115.906C63.394 115.906 63.433 115.907 63.433 115.985C63.4655 117.239 63.5825 117.902 63.5825 118.227C63.6006 118.38 63.5866 118.535 63.5413 118.682C63.496 118.829 63.4205 118.966 63.3195 119.082C63.2185 119.198 63.0943 119.292 62.9549 119.357C62.8155 119.423 62.6639 119.459 62.5099 119.462C61.3984 119.533 56.816 120.04 56.166 120.04Z" fill="#AB4A55"/>
<path d="M46.6491 93.1825L45.8756 93.046C45.8567 93.0415 45.8399 93.0306 45.8281 93.0152C45.8162 92.9999 45.8101 92.9809 45.8106 92.9615C45.8106 92.9408 45.8188 92.9209 45.8334 92.9063C45.848 92.8917 45.8679 92.8835 45.8886 92.8835L46.6426 93.02L72.9741 92.331L73.7086 92.2205C73.7298 92.2221 73.7497 92.2317 73.7642 92.2474C73.7786 92.2631 73.7866 92.2836 73.7866 92.305C73.7868 92.3236 73.7804 92.3417 73.7685 92.356C73.7566 92.3703 73.7399 92.3799 73.7216 92.383L72.9741 92.4935L46.6491 93.1825Z" fill="#AB4A55"/>
<path d="M56.9518 97.518C56.2498 97.518 55.6128 97.3555 55.5153 96.6015C55.4178 95.8475 55.1253 93.059 55.1253 93.0265C55.1244 93.0157 55.1257 93.0048 55.1292 92.9946C55.1328 92.9844 55.1384 92.975 55.1457 92.9671C55.153 92.9591 55.1619 92.9528 55.1718 92.9485C55.1818 92.9441 55.1925 92.9419 55.2033 92.942C55.2132 92.9411 55.2232 92.9422 55.2326 92.9454C55.2421 92.9486 55.2507 92.9537 55.2581 92.9605C55.2654 92.9672 55.2713 92.9754 55.2753 92.9845C55.2793 92.9936 55.2813 93.0035 55.2813 93.0135C55.6908 96.985 55.4503 97.3555 56.9713 97.3555H57.3288C65.6683 96.8225 65.2913 97.167 65.2913 95.087C65.2913 94.2485 65.2328 92.695 65.2328 92.6755C65.2319 92.6647 65.2332 92.6538 65.2367 92.6436C65.2403 92.6334 65.2458 92.624 65.2532 92.6161C65.2605 92.6081 65.2694 92.6018 65.2793 92.5975C65.2893 92.5931 65.3 92.5909 65.3108 92.591C65.3693 92.591 65.4538 92.3765 65.4538 95.0935C65.4538 95.8995 65.5578 96.7575 64.5373 96.9525C63.6468 97.102 57.3743 97.518 56.9518 97.518Z" fill="#AB4A55"/>
<path d="M42.7499 201.186L42.6004 201.128C46.4029 191.657 49.1004 180.724 49.3149 180.724C49.3149 180.724 49.9129 180.724 49.9129 180.289C49.9129 179.853 48.7884 180.289 48.7884 179.697C48.7884 179.515 48.8989 179.184 49.4384 179.125C49.0809 177.175 41.5604 146.086 41.4824 145.767L41.6384 145.728C46.0324 163.896 49.6139 178.846 49.6139 179.197C49.614 179.218 49.606 179.239 49.5915 179.255C49.577 179.27 49.5572 179.28 49.5359 179.281C49.3539 179.281 48.9704 179.366 48.9704 179.691C48.9704 180.016 50.0949 179.6 50.0949 180.289C50.0949 180.744 49.6789 180.867 49.3929 180.88C46.7669 189.792 44.8819 195.993 42.7499 201.186Z" fill="#C4EDEF"/>
<path d="M63.6988 200.926H63.5493L63.7443 179.6C63.7378 179.583 63.7378 179.565 63.7443 179.548L64.3098 178.898H64.0693C63.4193 178.898 62.5288 178.846 62.5288 178.43C62.5288 178.014 63.1333 177.617 63.3218 177.494C62.9903 175.869 57.2118 143.817 56.9648 142.426L57.1208 142.394C63.8028 179.502 63.4973 177.494 63.4973 177.533C63.4976 177.546 63.4941 177.56 63.4872 177.571C63.4803 177.583 63.4703 177.592 63.4583 177.598C63.1528 177.793 62.6913 178.176 62.6913 178.423C62.6913 178.67 63.5948 178.735 64.1083 178.735H64.4853C64.5078 178.735 64.5292 178.744 64.5451 178.76C64.5609 178.776 64.5699 178.798 64.5699 178.82C64.5764 178.837 64.5764 178.855 64.5699 178.872L63.9199 179.652L63.6988 200.926Z" fill="#C4EDEF"/>
<path d="M53.9755 154.295C53.9563 154.294 53.9381 154.286 53.9239 154.273C53.9098 154.26 53.9004 154.243 53.8975 154.224L52.1035 143.089C52.1086 143.072 52.1192 143.056 52.1339 143.045C52.1485 143.034 52.1664 143.028 52.1848 143.028C52.2031 143.028 52.221 143.034 52.2357 143.045C52.2503 143.056 52.261 143.072 52.266 143.089L54.0535 154.224C54.0506 154.243 54.0413 154.26 54.0271 154.273C54.0129 154.286 53.9947 154.294 53.9755 154.295Z" fill="#548492"/>
<path d="M52.9419 147.834C52.9206 147.835 52.9 147.827 52.8844 147.812C52.8687 147.798 52.8591 147.778 52.8574 147.756C52.8574 147.607 54.2029 147.399 54.2029 146.287C54.2029 145.709 53.8389 142.81 53.8389 142.771C53.8389 142.76 53.8411 142.749 53.8454 142.74C53.8497 142.73 53.8561 142.721 53.864 142.713C53.872 142.706 53.8813 142.7 53.8916 142.697C53.9018 142.693 53.9126 142.692 53.9234 142.693C54.0859 142.693 54.3654 146.261 54.3654 146.287C54.3654 147.412 53.0069 147.834 52.9419 147.834Z" fill="#548492"/>
<path d="M66.2664 216.455C66.1802 216.455 66.0976 216.421 66.0366 216.36C65.9757 216.299 65.9414 216.216 65.9414 216.13C65.9414 215.74 67.3714 213.913 68.9444 213.913C69.0306 213.913 69.1133 213.948 69.1742 214.009C69.2352 214.07 69.2694 214.152 69.2694 214.238C69.2694 214.325 69.2352 214.407 69.1742 214.468C69.1133 214.529 69.0306 214.563 68.9444 214.563C67.4169 214.667 66.5394 216.266 66.5329 216.286C66.506 216.334 66.4676 216.375 66.4211 216.404C66.3745 216.434 66.3214 216.451 66.2664 216.455Z" fill="#ECE7D0"/>
<path d="M67.8133 217.352C67.7704 217.353 67.7278 217.345 67.6879 217.329C67.6481 217.313 67.6119 217.289 67.5816 217.259C67.5512 217.228 67.5273 217.192 67.5113 217.152C67.4953 217.113 67.4875 217.07 67.4883 217.027C67.4883 216.637 68.9248 214.81 70.4913 214.81C70.5775 214.81 70.6602 214.845 70.7212 214.906C70.7821 214.967 70.8163 215.049 70.8163 215.135C70.815 215.218 70.7829 215.297 70.7264 215.357C70.6699 215.417 70.5931 215.454 70.5109 215.46C68.9834 215.571 68.1059 217.17 68.0994 217.183C68.0718 217.235 68.0306 217.278 67.9801 217.308C67.9297 217.338 67.872 217.353 67.8133 217.352Z" fill="#ECE7D0"/>
<path d="M69.5223 218.275C69.4361 218.275 69.3534 218.241 69.2925 218.18C69.2315 218.119 69.1973 218.036 69.1973 217.95C69.1973 217.56 70.6273 215.733 72.2068 215.733C72.2491 215.733 72.2911 215.742 72.3302 215.758C72.3692 215.775 72.4046 215.799 72.4343 215.829C72.464 215.859 72.4873 215.895 72.5029 215.935C72.5185 215.974 72.5261 216.016 72.5253 216.058C72.5255 216.14 72.4949 216.219 72.4394 216.28C72.384 216.34 72.3079 216.377 72.2263 216.383C70.6923 216.494 69.8213 218.086 69.8083 218.106C69.7808 218.158 69.7395 218.201 69.689 218.231C69.6386 218.261 69.5809 218.276 69.5223 218.275Z" fill="#ECE7D0"/>
<path d="M71.077 219.536C70.9908 219.536 70.9081 219.502 70.8471 219.441C70.7862 219.38 70.752 219.297 70.752 219.211C70.752 218.815 72.1885 216.995 73.7615 216.995C73.8477 216.995 73.9303 217.029 73.9913 217.09C74.0522 217.151 74.0865 217.233 74.0865 217.32C74.0865 217.406 74.0522 217.488 73.9913 217.549C73.9303 217.61 73.8477 217.645 73.7615 217.645C72.221 217.755 71.3565 219.348 71.3435 219.367C71.3166 219.415 71.2781 219.456 71.2316 219.485C71.1851 219.515 71.1319 219.532 71.077 219.536Z" fill="#ECE7D0"/>
<path d="M67.45 213.465C67.3597 213.458 67.2757 213.416 67.2161 213.348C67.1565 213.28 67.1261 213.191 67.1315 213.101C67.1315 213.101 67.1315 213.062 67.1315 213.042C67.1705 211.742 67.411 208.427 68.6785 208.427C69.4975 208.427 69.4715 209.337 69.4715 209.376C69.4845 210.455 68.061 213.465 67.45 213.465ZM68.685 209.077C68.2495 209.077 67.944 211.027 67.853 212.022C68.3433 211.226 68.6765 210.343 68.8345 209.422C68.841 209.064 68.75 209.077 68.6915 209.077H68.685Z" fill="#ECE7D0"/>
<path d="M65.5317 213.875C65.4992 213.875 63.3672 213.998 63.3672 212.939C63.3672 212.672 63.4972 212.068 64.5567 212.068C65.6106 212.16 66.6424 212.423 67.6117 212.847C67.9172 212.925 67.9627 213.121 67.9627 213.225C67.9627 213.68 66.8642 213.875 65.5317 213.875ZM64.5567 212.718C64.3682 212.718 64.0367 212.717 64.0367 212.932C64.0367 212.971 64.2382 213.231 65.4862 213.231C65.8684 213.23 66.2503 213.208 66.6302 213.166C65.956 212.928 65.2512 212.788 64.5372 212.75L64.5567 212.718Z" fill="#ECE7D0"/>
<path d="M38.7195 216.299C38.6333 216.299 38.5507 216.265 38.4897 216.204C38.4288 216.143 38.3945 216.06 38.3945 215.974C38.3945 215.512 39.844 215.213 40.5395 215.213C41.1089 215.21 41.6692 215.355 42.1645 215.636C42.2124 215.665 42.252 215.706 42.2793 215.755C42.3067 215.804 42.3209 215.859 42.3205 215.915C42.3205 216.002 42.2865 216.086 42.2257 216.148C42.165 216.21 42.0823 216.245 41.9955 216.247C41.5415 216.022 41.0457 215.894 40.5395 215.87C39.9128 215.908 39.2973 216.053 38.7195 216.299Z" fill="#ECE7D0"/>
<path d="M39.5379 217.651C39.4517 217.651 39.369 217.617 39.3081 217.556C39.2471 217.495 39.2129 217.412 39.2129 217.326C39.2129 216.871 40.6624 216.572 41.3579 216.572C41.9277 216.564 42.4891 216.71 42.9829 216.994C43.0312 217.023 43.0712 217.064 43.0986 217.113C43.126 217.162 43.1399 217.218 43.1389 217.274C43.1389 217.36 43.1047 217.443 43.0437 217.504C42.9828 217.565 42.9001 217.599 42.8139 217.599C42.3594 217.375 41.8639 217.247 41.3579 217.222C40.7312 217.26 40.1157 217.405 39.5379 217.651Z" fill="#ECE7D0"/>
<path d="M40.8523 219.075C40.7661 219.075 40.6835 219.04 40.6225 218.979C40.5616 218.918 40.5273 218.836 40.5273 218.75C40.5273 218.295 41.9768 217.996 42.6658 217.996C43.2358 217.987 43.7975 218.133 44.2908 218.418C44.3518 218.454 44.3993 218.509 44.4261 218.575C44.4528 218.641 44.4573 218.713 44.4389 218.782C44.4205 218.85 44.3802 218.911 44.3241 218.954C44.268 218.998 44.1993 219.022 44.1283 219.022C43.6739 218.799 43.1783 218.67 42.6723 218.646C42.0455 218.683 41.4298 218.828 40.8523 219.075Z" fill="#ECE7D0"/>
<path d="M42.1844 220.342C42.0982 220.342 42.0155 220.308 41.9546 220.247C41.8936 220.186 41.8594 220.103 41.8594 220.017C41.8594 219.562 43.3089 219.263 44.0044 219.263C44.5742 219.255 45.1356 219.401 45.6294 219.685C45.6785 219.714 45.7193 219.755 45.7478 219.804C45.7763 219.853 45.7915 219.908 45.7919 219.965C45.7919 220.051 45.7576 220.134 45.6967 220.195C45.6357 220.256 45.5531 220.29 45.4669 220.29C45.0099 220.067 44.5124 219.938 44.0044 219.913C43.3777 219.951 42.7621 220.096 42.1844 220.342Z" fill="#ECE7D0"/>
<path d="M40.4999 214.869C40.2919 214.869 40.0254 214.83 40.0254 214.544C40.0289 214.485 40.0459 214.427 40.0752 214.375C40.1045 214.323 40.1453 214.279 40.1944 214.245C40.6624 213.816 42.8334 211.911 44.0034 211.911C44.1066 211.908 44.2094 211.925 44.3059 211.962C44.4023 211.999 44.4904 212.055 44.5649 212.126C44.6394 212.198 44.6989 212.284 44.7397 212.378C44.7806 212.473 44.8021 212.575 44.8029 212.678C44.8029 214.05 40.8639 214.869 40.4999 214.869ZM43.9709 212.555C43.4639 212.555 42.3654 213.289 41.4164 214.05C43.0999 213.588 44.1529 212.984 44.1529 212.672C44.158 212.659 44.158 212.645 44.1529 212.633C44.1269 212.6 44.1074 212.555 43.9709 212.555Z" fill="#ECE7D0"/>
<path d="M40.24 215.187C39.6485 215.187 36.8535 213.621 36.8535 212.516C36.8635 212.318 36.9494 212.131 37.0934 211.994C37.2374 211.857 37.4285 211.781 37.627 211.781C38.589 211.781 39.8435 213.523 40.461 214.544C40.5388 214.63 40.5846 214.74 40.591 214.856C40.5921 214.901 40.5836 214.947 40.566 214.989C40.5485 215.031 40.5224 215.069 40.4893 215.1C40.4562 215.131 40.4169 215.155 40.374 215.17C40.331 215.185 40.2854 215.191 40.24 215.187ZM37.6335 212.431C37.6125 212.432 37.5918 212.437 37.5727 212.446C37.5537 212.455 37.5367 212.468 37.523 212.483C37.5196 212.489 37.5178 212.496 37.5178 212.503C37.5178 212.51 37.5196 212.517 37.523 212.522C37.523 212.6 37.7245 213.211 39.473 214.212C38.7905 213.25 38.03 212.431 37.6335 212.431Z" fill="#ECE7D0"/>
<path fill-rule="evenodd" clip-rule="evenodd" d="M68.6383 177.773C68.6383 177.858 68.6383 177.916 68.6383 177.923C68.3826 177.999 68.1184 178.043 67.8518 178.053C67.8044 178.06 67.7562 178.06 67.7088 178.053L67.8453 177.734C67.8453 177.734 67.1953 177.63 67.1953 177.487C67.1953 177.344 67.7153 177.188 67.7153 177.188L67.3708 176.98C67.4791 176.987 67.5876 176.987 67.6958 176.98C68.1833 176.98 68.0923 176.837 68.3913 176.837C68.4662 176.838 68.5406 176.848 68.6123 176.87C68.6123 176.87 68.6383 177.487 68.6383 177.773Z" fill="#B6DCE8"/>
<path fill-rule="evenodd" clip-rule="evenodd" d="M54.2294 182.031L53.6704 182.206L53.7224 181.907C53.5446 181.914 53.3668 181.892 53.1959 181.842C53.2972 181.821 53.3858 181.76 53.4429 181.673C53.5005 181.549 53.5336 181.414 53.5404 181.277L53.1699 181.036L53.4689 180.763V180.705C53.4689 180.568 53.4689 180.243 53.5794 180.243C53.7829 180.317 53.9807 180.407 54.1709 180.51L54.2424 180.25L54.5414 180.36C54.4693 180.923 54.3651 181.481 54.2294 182.031Z" fill="#B6DCE8"/>
<path fill-rule="evenodd" clip-rule="evenodd" d="M25.4068 116.582C25.0463 117.025 24.7568 117.52 24.5488 118.051C24.5982 118.463 24.6919 118.869 24.8283 119.26L24.9973 118.5L25.7448 119.338C25.6968 119.072 25.6686 118.803 25.6603 118.532C25.6603 118.337 25.6603 118.168 25.7968 118.168C25.9333 118.168 26.2063 118.467 26.2063 118.467C26.185 118.297 26.1741 118.126 26.1738 117.954C26.1738 117.193 26.4273 117.304 26.4273 116.855C26.4288 116.776 26.4156 116.696 26.3883 116.621L25.9463 117.115L25.4003 117.414L25.4068 116.582Z" fill="#F6A65C"/>
<path fill-rule="evenodd" clip-rule="evenodd" d="M72.1884 108.659L48.5024 109.718L48.3789 109.01L72.1884 108.659Z" fill="#343536"/>
<path d="M35.9693 91.5965C35.9479 91.5965 35.9274 91.5885 35.9117 91.5741C35.896 91.5596 35.8864 91.5397 35.8848 91.5185C36.1611 90.7853 36.2999 90.0075 36.2943 89.224C36.2943 89.2016 36.3032 89.1801 36.319 89.1642C36.3349 89.1484 36.3564 89.1395 36.3788 89.1395C36.3896 89.1394 36.4003 89.1416 36.4102 89.146C36.4201 89.1503 36.429 89.1566 36.4363 89.1646C36.4437 89.1725 36.4493 89.1819 36.4528 89.1921C36.4563 89.2023 36.4577 89.2132 36.4568 89.224C36.4568 89.8415 36.2488 91.5965 35.9693 91.5965Z" fill="#3E3B3B"/>
<path d="M37.8612 90.4395C37.8405 90.4395 37.8207 90.4313 37.806 90.4166C37.7914 90.402 37.7832 90.3822 37.7832 90.3615C38.0563 89.7463 38.2085 89.0842 38.2317 88.4115C38.2317 88.3908 38.2399 88.371 38.2545 88.3563C38.2692 88.3417 38.289 88.3335 38.3097 88.3335C38.3321 88.3335 38.3536 88.3424 38.3694 88.3583C38.3853 88.3741 38.3942 88.3956 38.3942 88.418C38.3942 89.107 38.0432 90.4395 37.8612 90.4395Z" fill="#3E3B3B"/>
<path d="M34.1113 92.5C34.0941 92.4956 34.079 92.4854 34.0683 92.4712C34.0577 92.4571 34.0522 92.4397 34.0528 92.422C34.5468 90.9205 34.6053 89.3475 34.7483 89.3475C34.7707 89.3475 34.7922 89.3564 34.808 89.3722C34.8239 89.3881 34.8328 89.4096 34.8328 89.432C34.8133 89.7765 34.2998 92.5 34.1113 92.5Z" fill="#3E3B3B"/>
<path d="M31.9007 93.709C31.8782 93.709 31.8568 93.7001 31.8409 93.6842C31.8251 93.6684 31.8161 93.6469 31.8161 93.6245C31.8563 93.3272 31.8759 93.0275 31.8747 92.7275C31.8682 92.044 31.7964 91.3627 31.6602 90.693C31.6602 90.6706 31.6691 90.6491 31.6849 90.6332C31.7007 90.6174 31.7222 90.6085 31.7447 90.6085C31.9072 90.6085 32.0372 92.11 32.0372 92.7275C32.037 93.0317 32.0175 93.3357 31.9786 93.6375C31.9757 93.6565 31.9664 93.6739 31.9522 93.6869C31.938 93.6999 31.9199 93.7077 31.9007 93.709Z" fill="#3E3B3B"/>
<path fill-rule="evenodd" clip-rule="evenodd" d="M182.219 137.188L181.439 130.343L180.867 130.584L180.594 128.205C180.594 128.205 188.095 126.866 192.138 126.866C194.549 126.858 196.944 127.247 199.229 128.016L199.119 130.545H198.469L197.988 137.591L182.219 137.188Z" fill="#85B6C5"/>
<path d="M198.436 130.616C198.332 130.616 197.019 129.843 190.818 129.843C184.162 129.843 181.51 130.493 181.445 130.493C181.424 130.491 181.404 130.481 181.39 130.466C181.375 130.45 181.367 130.429 181.367 130.408C181.367 130.168 185.781 129.687 190.805 129.687C196.538 129.687 198.521 130.337 198.521 130.532C198.521 130.554 198.512 130.575 198.496 130.591C198.48 130.607 198.459 130.616 198.436 130.616Z" fill="#AB4A55"/>
<path d="M188.024 131.701C187.699 131.701 187.225 131.539 187.225 130.564C187.224 130.346 187.246 130.128 187.29 129.914C187.294 129.895 187.305 129.878 187.32 129.866C187.336 129.855 187.355 129.848 187.374 129.849C187.395 129.849 187.415 129.857 187.429 129.872C187.444 129.886 187.452 129.906 187.452 129.927C187.412 130.141 187.39 130.359 187.387 130.577C187.387 130.869 187.426 131.546 188.037 131.546H188.349C189.513 131.5 191.469 131.435 192.34 131.35C192.932 131.298 193.055 130.616 193.055 130.122C193.06 130.038 193.06 129.953 193.055 129.868C193.055 129.858 193.057 129.847 193.062 129.837C193.066 129.827 193.072 129.818 193.08 129.811C193.088 129.804 193.098 129.798 193.108 129.794C193.118 129.791 193.129 129.79 193.14 129.79C193.159 129.792 193.177 129.8 193.191 129.813C193.205 129.826 193.215 129.843 193.218 129.862C193.218 129.862 193.218 129.979 193.218 130.128C193.218 131.76 192.62 131.559 188.349 131.708H188.031L188.024 131.701Z" fill="#AB4A55"/>
<path fill-rule="evenodd" clip-rule="evenodd" d="M179.373 137.103C179.373 137.103 196.611 137.188 199.562 137.701L198.262 150.701L181.161 150.61L180.14 142.03L179.646 142.102L179.373 137.103Z" fill="#E35B5B"/>
<path fill-rule="evenodd" clip-rule="evenodd" d="M177.67 150.669L201.648 150.74L201.512 152.918L199.042 153.269L203.878 217.398L202.578 217.255L197.573 153.295L182.499 153.002L174.251 216.572L172.996 216.449L181.277 152.833L178.06 152.892L177.67 150.669Z" fill="#343536"/>
<path fill-rule="evenodd" clip-rule="evenodd" d="M176.916 198.398L201.746 198.086L201.889 199.009H177.007L176.916 198.398Z" fill="#343536"/>
<path d="M198.436 130.616C198.332 130.616 197.019 129.843 190.818 129.843C184.162 129.843 181.51 130.493 181.445 130.493C181.424 130.491 181.404 130.481 181.39 130.466C181.375 130.45 181.367 130.429 181.367 130.408C181.367 130.168 185.781 129.687 190.805 129.687C196.538 129.687 198.521 130.337 198.521 130.532C198.521 130.554 198.512 130.575 198.496 130.591C198.48 130.607 198.459 130.616 198.436 130.616Z" fill="#AB4A55"/>
<path d="M198.436 130.616C198.332 130.616 197.019 129.843 190.818 129.843C184.162 129.843 181.51 130.493 181.445 130.493C181.424 130.491 181.404 130.481 181.39 130.466C181.375 130.45 181.367 130.429 181.367 130.408C181.367 130.168 185.781 129.687 190.805 129.687C196.538 129.687 198.521 130.337 198.521 130.532C198.521 130.554 198.512 130.575 198.496 130.591C198.48 130.607 198.459 130.616 198.436 130.616Z" fill="#AB4A55"/>
<path d="M188.024 131.701C187.699 131.701 187.225 131.539 187.225 130.564C187.224 130.346 187.246 130.128 187.29 129.914C187.294 129.895 187.305 129.878 187.32 129.866C187.336 129.855 187.355 129.848 187.374 129.849C187.395 129.849 187.415 129.857 187.429 129.872C187.444 129.886 187.452 129.906 187.452 129.927C187.412 130.141 187.39 130.359 187.387 130.577C187.387 130.869 187.426 131.546 188.037 131.546H188.349C189.513 131.5 191.469 131.435 192.34 131.35C192.932 131.298 193.055 130.616 193.055 130.122C193.06 130.038 193.06 129.953 193.055 129.868C193.055 129.858 193.057 129.847 193.062 129.837C193.066 129.827 193.072 129.818 193.08 129.811C193.088 129.804 193.098 129.798 193.108 129.794C193.118 129.791 193.129 129.79 193.14 129.79C193.159 129.792 193.177 129.8 193.191 129.813C193.205 129.826 193.215 129.843 193.218 129.862C193.218 129.862 193.218 129.979 193.218 130.128C193.218 131.76 192.62 131.559 188.349 131.708H188.031L188.024 131.701Z" fill="#AB4A55"/>
<path d="M188.024 131.701C187.699 131.701 187.225 131.539 187.225 130.564C187.224 130.346 187.246 130.128 187.29 129.914C187.294 129.895 187.305 129.878 187.32 129.866C187.336 129.855 187.355 129.848 187.374 129.849C187.395 129.849 187.415 129.857 187.429 129.872C187.444 129.886 187.452 129.906 187.452 129.927C187.412 130.141 187.39 130.359 187.387 130.577C187.387 130.869 187.426 131.546 188.037 131.546H188.349C189.513 131.5 191.469 131.435 192.34 131.35C192.932 131.298 193.055 130.616 193.055 130.122C193.06 130.038 193.06 129.953 193.055 129.868C193.055 129.858 193.057 129.847 193.062 129.837C193.066 129.827 193.072 129.818 193.08 129.811C193.088 129.804 193.098 129.798 193.108 129.794C193.118 129.791 193.129 129.79 193.14 129.79C193.159 129.792 193.177 129.8 193.191 129.813C193.205 129.826 193.215 129.843 193.218 129.862C193.218 129.862 193.218 129.979 193.218 130.128C193.218 131.76 192.62 131.559 188.349 131.708H188.031L188.024 131.701Z" fill="#AB4A55"/>
<path d="M188.024 131.701C187.699 131.701 187.225 131.539 187.225 130.564C187.224 130.346 187.246 130.128 187.29 129.914C187.294 129.895 187.305 129.878 187.32 129.866C187.336 129.855 187.355 129.848 187.374 129.849C187.395 129.849 187.415 129.857 187.429 129.872C187.444 129.886 187.452 129.906 187.452 129.927C187.412 130.141 187.39 130.359 187.387 130.577C187.387 130.869 187.426 131.546 188.037 131.546H188.349C189.513 131.5 191.469 131.435 192.34 131.35C192.932 131.298 193.055 130.616 193.055 130.122C193.06 130.038 193.06 129.953 193.055 129.868C193.055 129.858 193.057 129.847 193.062 129.837C193.066 129.827 193.072 129.818 193.08 129.811C193.088 129.804 193.098 129.798 193.108 129.794C193.118 129.791 193.129 129.79 193.14 129.79C193.159 129.792 193.177 129.8 193.191 129.813C193.205 129.826 193.215 129.843 193.218 129.862C193.218 129.862 193.218 129.979 193.218 130.128C193.218 131.76 192.62 131.559 188.349 131.708H188.031L188.024 131.701Z" fill="#AB4A55"/>
<path d="M188.024 131.701C187.699 131.701 187.225 131.539 187.225 130.564C187.224 130.346 187.246 130.128 187.29 129.914C187.294 129.895 187.305 129.878 187.32 129.866C187.336 129.855 187.355 129.848 187.374 129.849C187.395 129.849 187.415 129.857 187.429 129.872C187.444 129.886 187.452 129.906 187.452 129.927C187.412 130.141 187.39 130.359 187.387 130.577C187.387 130.869 187.426 131.546 188.037 131.546H188.349C189.513 131.5 191.469 131.435 192.34 131.35C192.932 131.298 193.055 130.616 193.055 130.122C193.06 130.038 193.06 129.953 193.055 129.868C193.055 129.858 193.057 129.847 193.062 129.837C193.066 129.827 193.072 129.818 193.08 129.811C193.088 129.804 193.098 129.798 193.108 129.794C193.118 129.791 193.129 129.79 193.14 129.79C193.159 129.792 193.177 129.8 193.191 129.813C193.205 129.826 193.215 129.843 193.218 129.862C193.218 129.862 193.218 129.979 193.218 130.128C193.218 131.76 192.62 131.559 188.349 131.708H188.031L188.024 131.701Z" fill="#AB4A55"/>
<path d="M180.166 142.121C180.145 142.121 180.125 142.113 180.111 142.098C180.096 142.084 180.088 142.064 180.088 142.043C180.088 141.874 182.116 141.854 187.459 141.854C187.524 141.854 199.159 141.854 199.159 141.997C199.159 142.02 199.15 142.041 199.134 142.057C199.118 142.073 199.097 142.082 199.074 142.082C198.97 142.082 192.737 142.017 187.413 142.017C180.504 142.017 180.27 142.121 180.166 142.121Z" fill="#AB4A55"/>
<path d="M190.26 143.421C189.721 143.421 189.162 143.421 188.642 143.421H188.174C187.023 143.421 187.095 142.453 187.095 142.42C187.093 142.266 187.115 142.113 187.16 141.965C187.165 141.948 187.175 141.934 187.189 141.923C187.203 141.913 187.22 141.907 187.238 141.907C187.259 141.908 187.279 141.918 187.293 141.933C187.308 141.949 187.316 141.97 187.316 141.991C187.279 142.131 187.259 142.275 187.257 142.42C187.257 143.07 187.673 143.246 188.174 143.259H188.648C189.162 143.259 189.727 143.259 190.267 143.259C192.295 143.259 192.743 143.213 192.743 142.212C192.752 142.115 192.752 142.017 192.743 141.92C192.743 141.897 192.752 141.876 192.768 141.86C192.784 141.844 192.805 141.835 192.828 141.835C192.847 141.835 192.866 141.842 192.881 141.856C192.895 141.869 192.904 141.887 192.906 141.907C192.917 142.01 192.917 142.115 192.906 142.219C192.899 143.415 192.204 143.421 190.26 143.421Z" fill="#AB4A55"/>
<path fill-rule="evenodd" clip-rule="evenodd" d="M163.649 27.396L162.798 11.341L162.024 11.926L161.719 6.33599C161.719 6.33599 172.177 2.86499 177.644 2.86499C180.863 2.8965 184.019 3.77049 186.796 5.39999L186.568 11.328L185.665 11.406L184.82 27.968L163.649 27.396Z" fill="#85B6C5"/>
<path d="M162.791 11.575C162.77 11.575 162.75 11.5668 162.736 11.5522C162.721 11.5375 162.713 11.5177 162.713 11.497C162.713 11.146 168.777 9.625 176.545 9.625C183.513 9.625 185.736 11.133 185.736 11.302C185.737 11.3128 185.735 11.3236 185.732 11.3338C185.728 11.3441 185.723 11.3535 185.715 11.3614C185.708 11.3694 185.699 11.3757 185.689 11.38C185.679 11.3843 185.669 11.3865 185.658 11.3865C185.495 11.3865 183.942 9.781 176.558 9.781C167.243 9.781 162.856 11.575 162.791 11.575Z" fill="#AB4A55"/>
<path d="M171.593 14.24C170.696 14.24 170.586 12.719 170.586 11.822C170.59 11.27 170.627 10.7186 170.696 10.171C170.699 10.152 170.709 10.1345 170.723 10.1215C170.737 10.1085 170.755 10.1008 170.774 10.0995C170.797 10.0995 170.818 10.1084 170.834 10.1243C170.85 10.1401 170.859 10.1616 170.859 10.184C170.793 10.7341 170.758 11.2875 170.755 11.8415C170.755 12.1275 170.755 14.0775 171.593 14.0775H171.652L172.048 14.045C173.615 13.9215 176.241 13.707 177.404 13.486C178.34 13.317 178.444 11.237 178.444 10.314C178.444 10.041 178.444 9.88501 178.444 9.87201C178.446 9.85182 178.455 9.83284 178.469 9.81852C178.483 9.80421 178.502 9.79551 178.522 9.79401C178.613 9.79401 178.613 9.85901 178.613 10.34C178.613 11.3085 178.496 13.4535 177.443 13.6485C176.267 13.863 173.641 14.0775 172.068 14.2075L171.671 14.24H171.593Z" fill="#AB4A55"/>
<path fill-rule="evenodd" clip-rule="evenodd" d="M106.806 84.479C103.447 84.4108 100.093 84.7645 96.8223 85.532L96.9133 92.7145L98.0573 92.5L99.1298 107.216L122.855 107.56L123.505 93.397H124.681L125.039 86.247C119.02 85.1593 112.922 84.568 106.806 84.479Z" fill="#E7AD79"/>
<path fill-rule="evenodd" clip-rule="evenodd" d="M107.75 72.207C105.36 72.1594 102.97 72.2876 100.6 72.5905L100.944 77.2055L101.835 77.316L102.342 84.661C102.342 84.661 119.242 85.22 122.089 85.844L122.739 77.81L123.506 77.537L123.616 72.857C123.616 72.857 114.9 72.207 107.75 72.207Z" fill="#85B6C5"/>
<path fill-rule="evenodd" clip-rule="evenodd" d="M172.1 26.5185C166.731 26.5185 161.135 26.772 156.812 27.5585L156.851 34.858L157.872 34.923C157.872 34.923 158.658 46.675 158.658 51.0365C158.658 51.563 158.658 51.9855 158.619 52.265L186.569 54.0525L188.402 36.2035L189.267 36.0605L190.112 27.2855C190.112 27.2855 181.441 26.5185 172.1 26.5185Z" fill="#E35B5B"/>
<path fill-rule="evenodd" clip-rule="evenodd" d="M155.238 51.6995C155.238 51.6995 185.554 52.759 190.462 53.526L189.357 62.9315L188.154 63.0485L187.296 71.557L154.861 70.049L156.012 60.65L154.387 60.416L155.238 51.6995Z" fill="#E7AD79"/>
<path fill-rule="evenodd" clip-rule="evenodd" d="M168.486 90.7385C166.389 90.7364 164.298 90.9542 162.246 91.3885C162.246 91.3885 162.246 106.339 162.396 109.192L175.695 109.602L175.435 91.707C173.186 91.0087 170.84 90.6816 168.486 90.7385Z" fill="#E35B5B"/>
<path fill-rule="evenodd" clip-rule="evenodd" d="M166.412 100.651C166.421 100.293 166.501 99.941 166.647 99.6141C166.792 99.2872 167.001 98.9921 167.26 98.7459C167.52 98.4996 167.825 98.3068 168.159 98.1787C168.493 98.0505 168.849 97.9895 169.207 97.999C170.254 97.999 172.028 98.766 172.028 100.671C172.019 101.028 171.939 101.381 171.794 101.707C171.648 102.034 171.44 102.329 171.18 102.576C170.921 102.822 170.615 103.015 170.281 103.143C169.947 103.271 169.591 103.332 169.233 103.323C168.2 103.323 166.412 102.556 166.412 100.651Z" fill="#ECE7D0"/>
<path fill-rule="evenodd" clip-rule="evenodd" d="M86.41 106.065L205.9 109.452L205.822 112.052L86.332 108.685L86.41 106.065Z" fill="#343536"/>
<path fill-rule="evenodd" clip-rule="evenodd" d="M86.9504 67.8L209.475 71.271L209.404 73.871L86.8789 70.3935L86.9504 67.8Z" fill="#343536"/>
<path fill-rule="evenodd" clip-rule="evenodd" d="M91.8628 68.2875L90.7578 55.2875L92.9158 54.9495L91.5378 45.453L92.4673 45.2385L93.5788 54.098L93.8128 46.87L94.5278 46.9935L94.1248 54.8585C94.4805 54.9045 94.8387 54.9284 95.1973 54.93H95.4898L97.6348 45.3685L98.9998 45.453L97.1278 55.203C97.7576 55.2708 98.3607 55.4942 98.8828 55.853L97.9988 68.3265L91.8628 68.2875Z" fill="#343536"/>
<path fill-rule="evenodd" clip-rule="evenodd" d="M106.371 69.178C99.9618 69.178 100.761 68.9375 100.761 67.6245C100.761 66.162 100.813 63.9585 100.813 63.9585L99.6758 63.861L99.8058 61.5665L117.395 60.3185L117.525 62.756L116.517 63.224L116.764 68.9115C116.764 68.9115 110.999 69.178 106.371 69.178Z" fill="#343536"/>
<path d="M98.1678 92.6495C98.1466 92.6478 98.1267 92.6382 98.1122 92.6226C98.0978 92.6069 98.0898 92.5863 98.0898 92.565C98.0898 92.357 107.411 92.2595 118.09 92.201C118.111 92.201 118.131 92.2092 118.145 92.2238C118.16 92.2385 118.168 92.2583 118.168 92.279C118.149 92.344 98.2328 92.6495 98.1678 92.6495Z" fill="#AB4A55"/>
<path d="M109.7 95.75C107.432 95.75 106.736 96.0165 106.736 93.3125C106.736 92.838 106.736 92.4675 106.736 92.422C106.739 92.403 106.749 92.3856 106.763 92.3726C106.777 92.3596 106.795 92.3518 106.814 92.3505C106.837 92.3505 106.858 92.3594 106.874 92.3753C106.89 92.3911 106.899 92.4126 106.899 92.435C106.899 92.435 106.899 92.7925 106.899 93.2995C106.899 94.203 107.022 95.3405 107.549 95.477C108.253 95.5745 108.964 95.6115 109.674 95.5875C111.67 95.5875 114.361 95.4705 114.965 95.4055C115.57 95.3405 115.843 93.163 115.862 92.331C115.862 92.3086 115.871 92.2871 115.887 92.2713C115.903 92.2554 115.924 92.2465 115.947 92.2465C115.958 92.2465 115.968 92.2487 115.978 92.253C115.988 92.2573 115.997 92.2637 116.004 92.2716C116.012 92.2796 116.017 92.2889 116.021 92.2992C116.024 92.3094 116.026 92.3202 116.025 92.331C116.025 93.631 115.713 95.49 114.985 95.581C114.354 95.62 111.696 95.75 109.7 95.75Z" fill="#AB4A55"/>
<path d="M101.932 77.4395C101.91 77.4395 101.888 77.4306 101.872 77.4147C101.857 77.3989 101.848 77.3774 101.848 77.355C101.848 77.3343 101.856 77.3144 101.871 77.2998C101.885 77.2852 101.905 77.277 101.926 77.277C102.628 77.212 102.946 77.199 103.076 77.199H103.154C103.174 77.2021 103.193 77.2124 103.206 77.2279C103.219 77.2434 103.226 77.2631 103.226 77.2835C103.226 77.2835 103.226 77.368 103.154 77.368H103.083C102.712 77.3615 101.945 77.4395 101.932 77.4395Z" fill="#AB4A55"/>
<path d="M121.829 77.3615L117.234 76.588C117.215 76.5851 117.197 76.5757 117.184 76.5616C117.171 76.5474 117.163 76.5292 117.162 76.51C117.163 76.4891 117.172 76.4692 117.186 76.4538C117.2 76.4384 117.219 76.4284 117.24 76.4255L121.836 77.1925C121.854 77.1964 121.871 77.206 121.884 77.22C121.897 77.234 121.905 77.2516 121.907 77.2705C121.908 77.2816 121.907 77.2927 121.903 77.3033C121.9 77.3139 121.894 77.3237 121.887 77.3322C121.88 77.3407 121.871 77.3476 121.861 77.3526C121.851 77.3576 121.84 77.3607 121.829 77.3615Z" fill="#AB4A55"/>
<path d="M161.783 92.279C161.773 92.279 161.762 92.2768 161.752 92.2725C161.742 92.2681 161.733 92.2618 161.726 92.2539C161.718 92.2459 161.713 92.2365 161.709 92.2263C161.706 92.2161 161.704 92.2052 161.705 92.1945C161.705 92.1738 161.714 92.1539 161.728 92.1393C161.743 92.1247 161.763 92.1165 161.783 92.1165H162.609C162.626 92.1215 162.642 92.1322 162.653 92.1468C162.664 92.1615 162.67 92.1793 162.67 92.1977C162.67 92.2161 162.664 92.2339 162.653 92.2486C162.642 92.2632 162.626 92.2739 162.609 92.279H161.783Z" fill="#AB4A55"/>
<path d="M162.473 93.709H161.719C161.708 93.709 161.697 93.7068 161.687 93.7025C161.678 93.6982 161.669 93.6919 161.661 93.6839C161.654 93.676 161.648 93.6666 161.645 93.6564C161.641 93.6461 161.64 93.6353 161.641 93.6245C161.641 93.6038 161.649 93.584 161.664 93.5694C161.678 93.5547 161.698 93.5465 161.719 93.5465H162.473C162.494 93.5481 162.514 93.5578 162.528 93.5734C162.543 93.5891 162.551 93.6097 162.551 93.631C162.551 93.6413 162.549 93.6514 162.545 93.6609C162.541 93.6703 162.535 93.6789 162.528 93.6862C162.521 93.6934 162.512 93.6991 162.503 93.7031C162.493 93.707 162.483 93.709 162.473 93.709Z" fill="#AB4A55"/>
<path d="M161.836 95.2105C161.815 95.2105 161.795 95.2025 161.779 95.1881C161.763 95.1736 161.754 95.1537 161.752 95.1325C161.753 95.1125 161.76 95.0934 161.773 95.0781C161.786 95.0628 161.804 95.0522 161.823 95.048L162.473 94.9635C162.484 94.9626 162.495 94.9639 162.505 94.9674C162.516 94.9709 162.525 94.9766 162.533 94.9839C162.541 94.9912 162.547 95.0001 162.551 95.01C162.556 95.02 162.558 95.0307 162.558 95.0415C162.557 95.0615 162.549 95.0806 162.537 95.0958C162.524 95.1111 162.506 95.1217 162.486 95.126L161.836 95.2105Z" fill="#AB4A55"/>
<path d="M161.842 96.868C161.821 96.868 161.801 96.8598 161.787 96.8451C161.772 96.8305 161.764 96.8107 161.764 96.79C161.763 96.7797 161.764 96.7694 161.767 96.7596C161.77 96.7498 161.775 96.7407 161.782 96.7328C161.789 96.725 161.797 96.7185 161.806 96.7138C161.815 96.7091 161.825 96.7063 161.835 96.7055L162.622 96.634C162.644 96.634 162.666 96.6429 162.682 96.6587C162.698 96.6746 162.706 96.6961 162.706 96.7185C162.705 96.7377 162.697 96.7559 162.684 96.7701C162.671 96.7842 162.654 96.7936 162.635 96.7965L161.842 96.868Z" fill="#AB4A55"/>
<path d="M161.94 98.454C161.929 98.4549 161.918 98.4535 161.908 98.45C161.898 98.4465 161.889 98.4409 161.881 98.4336C161.873 98.4262 161.866 98.4173 161.862 98.4074C161.858 98.3975 161.855 98.3868 161.855 98.376C161.855 98.3546 161.863 98.3341 161.878 98.3184C161.892 98.3027 161.912 98.2931 161.933 98.2915L162.616 98.233C162.668 98.233 162.694 98.2915 162.694 98.3175C162.693 98.3384 162.684 98.3582 162.67 98.3736C162.656 98.389 162.637 98.399 162.616 98.402L161.933 98.4605L161.94 98.454Z" fill="#AB4A55"/>
<path d="M161.979 99.897C161.968 99.897 161.957 99.8948 161.947 99.8905C161.937 99.8862 161.928 99.8798 161.921 99.8719C161.914 99.8639 161.908 99.8545 161.905 99.8443C161.901 99.8341 161.9 99.8232 161.901 99.8125C161.901 99.8022 161.903 99.7921 161.907 99.7826C161.911 99.7731 161.916 99.7646 161.924 99.7573C161.931 99.7501 161.939 99.7443 161.949 99.7404C161.958 99.7365 161.968 99.7345 161.979 99.7345L162.629 99.689C162.651 99.689 162.673 99.6979 162.688 99.7137C162.704 99.7296 162.713 99.7511 162.713 99.7735C162.713 99.7931 162.706 99.812 162.693 99.8264C162.679 99.8409 162.661 99.8498 162.642 99.8515L161.959 99.897H161.979Z" fill="#AB4A55"/>
<path d="M161.993 101.424C161.975 101.419 161.96 101.409 161.949 101.394C161.938 101.379 161.932 101.362 161.932 101.343C161.932 101.325 161.938 101.307 161.949 101.292C161.96 101.278 161.975 101.267 161.993 101.262H162.688C162.706 101.267 162.722 101.278 162.733 101.292C162.744 101.307 162.75 101.325 162.75 101.343C162.75 101.362 162.744 101.379 162.733 101.394C162.722 101.409 162.706 101.419 162.688 101.424H161.993Z" fill="#AB4A55"/>
<path d="M162.792 102.776L161.973 102.679C161.956 102.674 161.94 102.663 161.929 102.649C161.918 102.634 161.912 102.616 161.912 102.598C161.912 102.579 161.918 102.561 161.929 102.547C161.94 102.532 161.956 102.522 161.973 102.516L162.786 102.614C162.796 102.614 162.806 102.616 162.815 102.62C162.824 102.624 162.832 102.63 162.839 102.637C162.846 102.645 162.851 102.653 162.854 102.663C162.857 102.672 162.858 102.682 162.857 102.692C162.858 102.711 162.852 102.73 162.84 102.746C162.828 102.761 162.811 102.772 162.792 102.776Z" fill="#AB4A55"/>
<path d="M161.772 103.862C161.761 103.863 161.75 103.862 161.74 103.858C161.73 103.855 161.721 103.849 161.713 103.842C161.705 103.834 161.698 103.825 161.694 103.815C161.69 103.806 161.687 103.795 161.688 103.784C161.689 103.763 161.697 103.743 161.711 103.728C161.726 103.712 161.745 103.702 161.765 103.699L162.864 103.654C162.885 103.654 162.906 103.662 162.922 103.676C162.937 103.691 162.947 103.711 162.949 103.732C162.947 103.753 162.939 103.773 162.925 103.788C162.91 103.804 162.891 103.814 162.87 103.816L161.778 103.862H161.772Z" fill="#AB4A55"/>
<path d="M162.733 105.247L162.083 105.123C162.064 105.119 162.047 105.108 162.035 105.092C162.024 105.077 162.017 105.058 162.018 105.039C162.017 105.029 162.018 105.019 162.021 105.009C162.025 105 162.03 104.991 162.036 104.984C162.043 104.976 162.051 104.97 162.06 104.967C162.07 104.963 162.079 104.96 162.089 104.961L162.739 105.091C162.758 105.094 162.774 105.103 162.786 105.117C162.798 105.132 162.805 105.15 162.804 105.169C162.804 105.188 162.797 105.207 162.784 105.221C162.771 105.236 162.752 105.245 162.733 105.247Z" fill="#AB4A55"/>
<path d="M162.759 106.449L162.005 106.312C161.986 106.309 161.97 106.3 161.958 106.285C161.946 106.271 161.939 106.253 161.94 106.234C161.939 106.224 161.94 106.213 161.944 106.203C161.947 106.192 161.953 106.183 161.96 106.175C161.967 106.167 161.976 106.161 161.986 106.156C161.996 106.152 162.007 106.15 162.018 106.15L162.772 106.286C162.791 106.291 162.807 106.302 162.819 106.317C162.831 106.333 162.837 106.352 162.837 106.371C162.837 106.392 162.829 106.411 162.814 106.426C162.799 106.441 162.779 106.449 162.759 106.449Z" fill="#AB4A55"/>
<path d="M161.985 107.547C161.964 107.548 161.943 107.54 161.928 107.525C161.912 107.511 161.902 107.491 161.901 107.469C161.9 107.459 161.901 107.448 161.905 107.438C161.908 107.427 161.914 107.418 161.921 107.41C161.928 107.402 161.937 107.396 161.947 107.391C161.957 107.387 161.968 107.385 161.979 107.385L162.726 107.339C162.747 107.339 162.767 107.348 162.781 107.362C162.796 107.377 162.804 107.397 162.804 107.417C162.804 107.439 162.796 107.459 162.782 107.475C162.767 107.491 162.747 107.5 162.726 107.502L161.979 107.547H161.985Z" fill="#AB4A55"/>
<path d="M188.082 63.146C188.017 63.146 166.32 61.6315 165.722 61.495C165.638 61.495 165.625 61.456 165.625 61.417C165.627 61.394 165.637 61.3725 165.654 61.3568C165.671 61.3412 165.693 61.3325 165.716 61.3325H165.761C167.139 61.56 188.18 62.873 188.18 63.055C188.181 63.0678 188.179 63.0807 188.175 63.0927C188.17 63.1048 188.163 63.1156 188.153 63.1243C188.144 63.1331 188.133 63.1396 188.121 63.1434C188.108 63.1472 188.095 63.148 188.082 63.146Z" fill="#AB4A55"/>
<path d="M175.929 64.693C173.94 64.693 170.079 64.6085 169.227 64.563C168.577 64.563 168.525 63.653 168.525 63.1785C168.53 62.7222 168.578 62.2673 168.668 61.82C168.671 61.8017 168.681 61.785 168.695 61.7731C168.71 61.7612 168.728 61.7548 168.746 61.755C168.769 61.755 168.79 61.7639 168.806 61.7798C168.822 61.7956 168.831 61.8171 168.831 61.8395C168.744 62.2852 168.697 62.7376 168.688 63.1915C168.688 64.68 168.499 64.5305 175.916 64.5305C176.949 64.5305 177.866 64.758 177.866 62.509V62.392C177.866 62.3696 177.875 62.3481 177.891 62.3323C177.906 62.3164 177.928 62.3075 177.95 62.3075C177.97 62.3102 177.988 62.3193 178.003 62.3333C178.017 62.3474 178.026 62.3658 178.028 62.3855V62.5285C178.054 64.9725 176.852 64.693 175.929 64.693Z" fill="#AB4A55"/>
<path d="M157.865 35.0855C157.855 35.0855 157.844 35.0833 157.834 35.079C157.824 35.0747 157.815 35.0684 157.808 35.0604C157.8 35.0525 157.795 35.0431 157.791 35.0328C157.788 35.0226 157.786 35.0118 157.787 35.001C157.787 34.962 169.559 34.078 169.624 34.078C169.643 34.0779 169.662 34.0853 169.677 34.0985C169.691 34.1118 169.7 34.13 169.702 34.1495C169.702 34.3185 160.069 35.0335 157.865 35.079V35.0855Z" fill="#AB4A55"/>
<path d="M188.128 36.2815C185.886 36.2815 178.742 34.832 178.742 34.6825C178.742 34.6723 178.744 34.6621 178.748 34.6526C178.752 34.6432 178.758 34.6346 178.765 34.6273C178.772 34.6201 178.781 34.6143 178.79 34.6104C178.8 34.6065 178.81 34.6045 178.82 34.6045C178.885 34.6045 185.613 36.119 188.128 36.119H188.213C188.233 36.119 188.253 36.1272 188.268 36.1418C188.282 36.1565 188.291 36.1763 188.291 36.197C188.292 36.2078 188.29 36.2186 188.287 36.2288C188.283 36.2391 188.278 36.2485 188.27 36.2564C188.263 36.2643 188.254 36.2707 188.244 36.275C188.234 36.2793 188.224 36.2815 188.213 36.2815H188.128Z" fill="#AB4A55"/>
<path d="M168.927 37.588C166.71 37.588 166.262 35.352 166.262 34.637C166.261 34.6262 166.262 34.6154 166.266 34.6051C166.269 34.5949 166.275 34.5855 166.282 34.5776C166.29 34.5696 166.299 34.5633 166.309 34.559C166.318 34.5547 166.329 34.5525 166.34 34.5525C166.483 34.5525 166.379 37.3865 168.94 37.4255C168.951 37.4255 168.962 37.4277 168.971 37.432C168.981 37.4363 168.99 37.4426 168.998 37.4506C169.005 37.4585 169.011 37.4679 169.014 37.4781C169.018 37.4884 169.019 37.4992 169.018 37.51C169.018 37.5214 169.016 37.5328 169.011 37.5432C169.006 37.5536 168.999 37.5629 168.991 37.5703C168.982 37.5777 168.972 37.5832 168.961 37.5862C168.95 37.5893 168.938 37.5899 168.927 37.588Z" fill="#AB4A55"/>
<path d="M179.393 37.9325C179.017 37.9286 178.647 37.835 178.314 37.6595C178.302 37.6518 178.293 37.6412 178.286 37.6287C178.279 37.6162 178.275 37.6022 178.275 37.588C178.275 37.5772 178.278 37.5665 178.282 37.5566C178.286 37.5466 178.293 37.5377 178.3 37.5304C178.308 37.5231 178.318 37.5175 178.328 37.514C178.338 37.5104 178.349 37.5091 178.36 37.51C178.683 37.6724 179.038 37.7611 179.4 37.77C181.207 37.77 181.525 35.378 181.707 35.378C181.718 35.378 181.728 35.38 181.737 35.3839C181.747 35.3878 181.755 35.3936 181.763 35.4008C181.77 35.4081 181.776 35.4167 181.779 35.4261C181.783 35.4356 181.785 35.4457 181.785 35.456C181.785 35.6835 181.122 37.9325 179.393 37.9325Z" fill="#AB4A55"/>
<path d="M95.6328 148.504C95.6121 148.504 95.5923 148.496 95.5777 148.481C95.563 148.467 95.5548 148.447 95.5548 148.426L94.8203 108.965C94.8216 108.944 94.8301 108.924 94.8443 108.908C94.8585 108.893 94.8776 108.883 94.8983 108.88C94.9196 108.882 94.9394 108.891 94.9539 108.907C94.9684 108.923 94.9764 108.943 94.9763 108.965L95.7173 148.4C95.7174 148.411 95.7151 148.422 95.7108 148.431C95.7065 148.441 95.7002 148.45 95.6922 148.458C95.6843 148.465 95.6749 148.471 95.6647 148.474C95.6544 148.478 95.6436 148.479 95.6328 148.478V148.504Z" fill="#548492"/>
<path fill-rule="evenodd" clip-rule="evenodd" d="M91.877 148.556L100.255 148.029L101.334 158.982L92.67 160.542L91.877 148.556Z" fill="#EDEBD9"/>
<path d="M92.6698 160.627C92.6113 160.627 92.5918 160.562 92.5918 160.549L91.7988 148.563C91.7988 148.542 91.807 148.522 91.8217 148.507C91.8363 148.493 91.8561 148.485 91.8768 148.485L100.249 147.958C100.268 147.958 100.287 147.965 100.302 147.979C100.316 147.992 100.325 148.01 100.327 148.029L101.412 158.982C101.413 159.002 101.405 159.022 101.392 159.038C101.379 159.053 101.361 159.063 101.341 159.067L92.6828 160.62L92.6698 160.627ZM91.9678 148.634L92.7478 160.445L101.25 158.917L100.184 148.121L91.9678 148.634Z" fill="#548492"/>
<path fill-rule="evenodd" clip-rule="evenodd" d="M95.4961 151.904L97.3681 152.02L97.7126 156.499L95.4961 156.973V151.904Z" fill="#D3CFB7"/>
<path d="M95.4966 157.058C95.4799 157.065 95.4613 157.065 95.4446 157.058C95.4399 157.048 95.4375 157.037 95.4375 157.025C95.4375 157.014 95.4399 157.003 95.4446 156.993V151.923C95.4446 151.845 95.5291 151.845 95.5291 151.845L97.4076 151.955C97.4266 151.958 97.4441 151.968 97.4571 151.982C97.4701 151.996 97.4778 152.014 97.4791 152.033L97.8301 156.512C97.8304 156.531 97.824 156.549 97.812 156.563C97.8001 156.577 97.7835 156.587 97.7651 156.59L95.5421 157.071L95.4966 157.058ZM95.5746 151.988V156.85L97.6286 156.408L97.2906 152.072L95.5746 151.988Z" fill="#548492"/>
<path fill-rule="evenodd" clip-rule="evenodd" d="M123.408 193.9C123.408 193.9 132.95 194.251 137.767 194.251C143.532 194.251 152.034 193.296 152.034 193.296L151.04 201.219L149.87 201.349C149.87 201.349 148.472 212.016 148.472 215.649C148.472 215.857 148.472 216.039 148.472 216.195L125.774 215.656L124.65 202.058L123.434 201.856L123.408 193.9Z" fill="#E7AD79"/>
<path fill-rule="evenodd" clip-rule="evenodd" d="M145.092 42.411C145.092 42.411 147.276 51.9595 147.744 52.343C147.84 52.4249 147.962 52.4709 148.088 52.473C148.191 52.4626 148.291 52.4305 148.38 52.379C148.47 52.3275 148.548 52.2576 148.608 52.174L148.998 50.6465C148.998 50.6465 146.359 43.1 145.092 42.411Z" fill="#E27C6B"/>
<path fill-rule="evenodd" clip-rule="evenodd" d="M173.731 20.662C173.731 20.662 175.382 13.837 175.382 11.614C175.382 9.39101 172.711 5.72501 172.711 5.66001C172.711 5.59501 172.873 5.43251 173.114 5.43251C174.414 5.43251 174.674 7.51901 176.565 7.51901C176.818 7.52106 177.068 7.46323 177.294 7.35025C177.52 7.23727 177.716 7.07235 177.865 6.86901C180.706 3.37851 181.986 0.0570068 182.214 0.0570068C182.331 0.0570068 182.506 0.219507 182.506 0.603007C182.506 1.95501 180.491 6.18651 180.491 6.53751C180.491 6.60251 180.491 6.63501 180.563 6.63501C181.284 6.63501 184.209 1.43501 185.015 1.43501C185.152 1.43501 185.243 1.53251 185.243 1.73401C185.243 2.65701 182.266 6.64801 182.266 7.43451C182.266 7.49301 182.266 7.51901 182.324 7.51901C182.818 7.51901 186.647 4.67201 187.206 4.67201C187.362 4.67201 187.459 4.75001 187.459 4.89951C187.459 5.65351 183.488 8.51351 183.488 8.94251C183.488 8.94251 183.488 9.13101 183.819 9.13101C184.151 9.13101 184.937 8.89701 185.73 8.89701C186.523 8.89701 187.095 9.13751 187.095 9.27401C187.095 9.83951 183.754 8.98151 181.096 13.577C179.536 16.268 178.957 21.9555 178.957 21.9555L173.731 20.662Z" fill="#F6A88A"/>
<path fill-rule="evenodd" clip-rule="evenodd" d="M148.109 54.7285C148.109 54.7285 153.439 53.1165 154.83 53.1035L154.921 50.5035C154.036 49.9721 153.023 49.6913 151.99 49.691C150.751 49.7012 149.548 50.1091 148.558 50.8545C148.558 50.8545 148.272 52.5835 148.109 54.7285Z" fill="#F6A88A"/>
<path fill-rule="evenodd" clip-rule="evenodd" d="M119.359 78.6615C119.359 78.6615 115.459 74.3 114.432 71.908C113.794 70.2623 113.47 68.5119 113.476 66.747C113.458 66.0261 113.552 65.3067 113.756 64.615C113.759 64.5844 113.755 64.5534 113.745 64.5245C113.734 64.4955 113.718 64.4692 113.696 64.4474C113.674 64.4256 113.648 64.409 113.619 64.3986C113.59 64.3883 113.559 64.3845 113.528 64.3875C113.086 64.3875 112.124 65.187 112.124 66.526C112.124 66.7535 112.124 66.864 112.124 67.2345C112.124 69.0675 111.273 70.4 110.174 70.4845C109.7 70.4845 109.206 70.543 108.64 70.543C105.436 70.543 102.075 69.1455 100.47 69.1455C100.08 69.1455 100.002 69.2625 100.002 69.36C100.002 69.958 104.714 71.6155 105.735 71.96C105.735 71.96 104.285 71.882 102.875 71.882C101.464 71.882 100.275 71.9535 100.275 72.2395C100.275 72.8895 105.975 73.637 105.975 73.884C105.975 74.131 100.905 74.807 100.905 75.5025C100.905 75.6845 101.198 75.821 101.945 75.821C103.46 75.821 106.157 75.2945 106.71 75.2945C106.801 75.2945 106.807 75.2945 106.807 75.2945C106.807 75.5025 102.953 76.991 102.953 77.5695C102.953 77.719 103.18 77.7515 103.401 77.7515C104.571 77.7515 107.717 76.835 109.336 76.835C109.556 76.8284 109.775 76.8569 109.986 76.9195C111.357 77.394 114.809 82.9515 114.809 82.9515C114.809 82.9515 117.045 80.644 119.359 78.6615Z" fill="#F6A88A"/>
<path fill-rule="evenodd" clip-rule="evenodd" d="M171.599 24.0875L180.55 25.615C180.55 25.615 177.683 41.371 177.443 42.6125C177.202 43.854 165.6 60.728 162.35 68.3135C159.1 75.899 158.073 94.5995 158.073 94.5995C158.073 94.5995 154.569 94.2225 150.975 94.2225C144.371 94.2225 132.242 97.999 132.242 97.999L132.664 92.019C132.664 92.019 125.378 99.494 123.798 99.494C122.342 99.494 115.621 88.314 115.621 88.314L123.961 81.073L126.795 85.922C126.795 85.922 136.285 65.7135 137.091 64.3745C139.125 60.9815 156.253 53.3245 156.253 53.3245C156.253 53.3245 166.334 43.1715 167.953 40.2595C169.571 37.3475 171.599 24.0875 171.599 24.0875Z" fill="#498851"/>
<path fill-rule="evenodd" clip-rule="evenodd" d="M171.275 24.081L180.746 25.6735L181.188 22.1895L172.471 20.2395L171.275 24.081Z" fill="#ECE7D0"/>
<path fill-rule="evenodd" clip-rule="evenodd" d="M146.477 58.05L147.575 54.93C147.575 54.93 152.444 53.2075 154.933 53.0905L155.421 53.7405C155.421 53.7405 148.186 57.153 146.477 58.05Z" fill="#ECE7D0"/>
<path fill-rule="evenodd" clip-rule="evenodd" d="M113.094 84.622L115.486 88.7625C115.486 88.7625 123.598 81.4825 124.228 80.9625L121.966 77.0625C118.801 77.6735 113.094 84.622 113.094 84.622Z" fill="#ECE7D0"/>
<path fill-rule="evenodd" clip-rule="evenodd" d="M132.261 97.9795C132.261 97.9795 141.004 93.553 149.545 93.553C152.385 93.5603 155.217 93.8631 157.995 94.4565C157.995 94.4565 157.169 102.848 156.337 112.266L150.761 165.397L141.433 164.162C141.433 164.162 142.733 138.702 143.077 133.138C143.422 127.574 143.65 118.786 143.65 118.786C143.65 118.786 141.231 133.216 139.951 142.894C138.67 152.573 137.15 161.881 137.15 161.881L128.459 161.283C128.459 161.283 129.668 143.674 130.89 129.94C132.112 116.205 132.261 97.9795 132.261 97.9795Z" fill="#85B6C5"/>
<path fill-rule="evenodd" clip-rule="evenodd" d="M140.958 164L151.027 165.378L150.728 168.96L140.809 168.459L140.958 164Z" fill="#B6DCE8"/>
<path fill-rule="evenodd" clip-rule="evenodd" d="M128.023 161.224L137.416 161.829L136.928 166.671L127.451 165.982L128.023 161.224Z" fill="#B6DCE8"/>
<path fill-rule="evenodd" clip-rule="evenodd" d="M131.762 181.492C130.794 181.516 129.85 181.796 129.025 182.304L129.916 166.158L135.636 166.561L134.336 182.454C133.63 181.819 132.711 181.475 131.762 181.492Z" fill="#343536"/>
<path fill-rule="evenodd" clip-rule="evenodd" d="M143.117 168.55L142.246 182.908C142.558 182.512 142.952 182.188 143.401 181.958C143.849 181.728 144.342 181.598 144.846 181.576C145.414 181.591 145.972 181.725 146.483 181.97C146.995 182.216 147.45 182.566 147.817 182.999C147.817 182.999 147.96 177.799 148.064 175.16C148.168 172.521 148.506 168.81 148.506 168.81L143.117 168.55Z" fill="#343536"/>
<path fill-rule="evenodd" clip-rule="evenodd" d="M150.768 33.389C149.97 33.3868 149.177 33.5052 148.415 33.74C147.622 33.974 144.95 36.34 144.209 37.4255C143.137 38.8425 142.324 40.3635 142.324 41.2865C142.324 42.6645 145.34 43.4705 145.34 43.4705V42.931C146.062 43.9905 146.588 44.9525 146.588 44.9525L148.538 50.874C149.829 50.3706 151.197 50.0957 152.581 50.0615C153.376 50.047 154.165 50.1929 154.902 50.4905C154.902 50.4905 159.484 42.0925 159.484 39.5315C159.484 39.265 159.543 38.576 156.819 38.576H156.501C156.737 38.2219 156.861 37.8054 156.858 37.38C156.858 35.6185 154.219 33.389 150.768 33.389Z" fill="#AB4A55"/>
<path fill-rule="evenodd" clip-rule="evenodd" d="M149.182 50.9C150.217 50.4909 151.318 50.2708 152.432 50.25C153.076 50.243 153.717 50.3418 154.33 50.5425L154.291 50.965H153.712C152.555 50.965 150.001 51.0235 149.253 51.5435L149.182 50.9Z" fill="#AB4A55"/>
<path fill-rule="evenodd" clip-rule="evenodd" d="M150.48 104.564C150.48 104.564 147.88 106.943 146.886 108.133C145.891 109.322 142.771 124.09 142.771 124.09L144.188 109.023C144.188 109.023 141.913 109.023 139.742 108.815C143.587 108.194 147.252 106.743 150.48 104.564Z" fill="#548492"/>
<path fill-rule="evenodd" clip-rule="evenodd" d="M150.649 165.3L141.445 164.046L141.478 163.435L150.649 165.3Z" fill="#548492"/>
<path fill-rule="evenodd" clip-rule="evenodd" d="M137.181 161.803L128.465 161.257L128.504 160.808L137.181 161.803Z" fill="#548492"/>
<path fill-rule="evenodd" clip-rule="evenodd" d="M132.639 91.9995C132.834 90.0495 133.491 84.8495 133.491 84.8495C132.922 86.963 132.203 89.0331 131.339 91.044C130.332 93.033 128.791 95.7565 128.791 95.7565C128.791 95.7565 132.626 92.1295 132.639 91.9995Z" fill="#386346"/>
<path fill-rule="evenodd" clip-rule="evenodd" d="M123.999 81.1705L115.998 88.9705L115.725 88.5415L123.999 81.1705Z" fill="#386346"/>
<path fill-rule="evenodd" clip-rule="evenodd" d="M119.215 78.538C117.611 79.8449 116.104 81.2656 114.704 82.789L114.457 82.3925C114.457 82.3925 117.733 79.396 119.215 78.538Z" fill="#E27C6B"/>
<path fill-rule="evenodd" clip-rule="evenodd" d="M178.938 21.6955L173.738 20.5255L173.829 20.116L178.938 21.6955Z" fill="#E27C6B"/>
<path fill-rule="evenodd" clip-rule="evenodd" d="M180.549 25.6345L171.508 24.6725L171.599 24.133L180.549 25.6345Z" fill="#386346"/>
<path fill-rule="evenodd" clip-rule="evenodd" d="M128.336 192.6C128.336 192.6 128.407 190.585 128.407 188.447C128.407 186.542 128.362 186.243 128.362 185.314C128.362 185.132 127.894 180.653 131.943 180.653C134.108 180.653 134.771 182.818 134.771 185.853C134.77 186.659 134.725 187.464 134.634 188.265L128.336 192.6Z" fill="#F6C15C"/>
<path fill-rule="evenodd" clip-rule="evenodd" d="M142.199 185.294C142.199 185.119 142.199 183.942 142.199 182.921C142.199 181.901 143.616 181.349 144.799 181.349C146.548 181.349 147.802 182.564 147.88 183.383C147.88 183.611 147.88 183.884 147.88 184.196C147.88 185.164 147.802 186.419 147.802 187.218C147.802 188.395 148.413 191.417 148.667 193.101C148.745 193.081 142.693 186.484 142.199 185.294Z" fill="#F6C15C"/>
<path fill-rule="evenodd" clip-rule="evenodd" d="M128.133 194.394C127.895 194.077 127.755 193.698 127.73 193.302C127.718 193.21 127.726 193.116 127.753 193.027C127.78 192.938 127.826 192.856 127.888 192.787C127.949 192.717 128.025 192.662 128.11 192.624C128.195 192.586 128.287 192.567 128.38 192.568C128.38 192.568 129.03 186.068 129.03 184.118V183.897C129.03 182.85 130.421 181.648 131.819 181.648C133.561 181.648 134.685 183.37 134.685 187.082C134.63 189.413 134.336 191.733 133.808 194.004L128.133 194.394Z" fill="#ECE7D0"/>
<path fill-rule="evenodd" clip-rule="evenodd" d="M141.602 193.998C141.602 193.998 142.2 186.055 142.252 184.846C142.336 182.798 144.254 182.512 145.079 182.512C146.86 182.512 147.965 184.417 147.965 185.827C147.965 186.094 147.92 186.23 147.92 187.478C147.892 189.105 147.982 190.732 148.186 192.347C148.368 192.88 149.226 193.27 149.226 193.926C149.229 193.961 149.229 193.995 149.226 194.03L141.602 193.998Z" fill="#ECE7D0"/>
<path fill-rule="evenodd" clip-rule="evenodd" d="M142.076 194.03C142.076 194.03 142.726 188.349 142.824 185.931C142.833 185.299 143.081 184.695 143.52 184.24C143.958 183.785 144.552 183.513 145.183 183.481C146.555 183.481 147.549 184.826 147.549 187.589C147.549 189.428 147.114 191.255 147.114 191.95C147.11 192 147.11 192.05 147.114 192.1C147.244 192.886 147.309 194.05 147.309 194.05L142.076 194.03Z" fill="#D8D2B4"/>
<path fill-rule="evenodd" clip-rule="evenodd" d="M129.199 194.316C129.756 191.883 130.044 189.396 130.057 186.9C130.057 185.795 130.057 184.709 130.057 184.13C130.057 183.155 131.312 182.479 132.007 182.479C134.081 182.479 134.094 188.225 134.094 188.713C134.041 190.493 133.823 192.264 133.444 194.004L129.199 194.316Z" fill="#D8D2B4"/>
<path fill-rule="evenodd" clip-rule="evenodd" d="M130.572 181.004C130.572 181.004 130.819 180.042 131.502 180.042C132.184 180.042 132.802 180.9 132.802 180.9L130.572 181.004Z" fill="#F6C15C"/>
<path fill-rule="evenodd" clip-rule="evenodd" d="M143.98 181.504C143.98 181.504 144.117 180.984 144.455 180.932C144.572 180.922 144.689 180.922 144.806 180.932C145.043 180.932 145.279 180.963 145.508 181.023C145.781 181.108 145.872 181.634 145.872 181.634L143.98 181.504Z" fill="#F6C15C"/>
<path fill-rule="evenodd" clip-rule="evenodd" d="M146.387 45.05C146.681 44.894 147.009 44.8115 147.342 44.8095C147.342 44.8095 148.824 44.8095 148.824 46.168C148.824 46.428 148.662 48.0075 147.609 48.0075C147.519 48.0124 147.43 47.9945 147.349 47.9555L146.387 45.05Z" fill="#E27C6B"/>
<path d="M146.1 164.396L145.938 164.357C146.061 163.792 149.116 137.649 149.298 136.082C148.473 135.868 147.465 135.523 147.465 135.179C147.465 134.834 148.525 134.308 148.928 134.139L151.3 110.128H151.463L149.083 134.178C149.084 134.193 149.079 134.208 149.069 134.22C149.06 134.232 149.046 134.24 149.032 134.243C148.382 134.529 147.628 134.945 147.628 135.146C147.628 135.348 149.109 135.842 149.408 135.92C149.426 135.924 149.441 135.935 149.451 135.949C149.462 135.963 149.468 135.98 149.467 135.998C149.473 136.089 146.224 163.837 146.1 164.396Z" fill="#C4EDEF"/>
<path d="M132.566 161.322C132.566 160.672 135.231 136.278 135.381 136.278C135.645 136.368 135.921 136.423 136.2 136.44C136.421 136.44 136.629 136.388 136.629 136.128C136.514 135.448 136.254 134.801 135.868 134.23C135.868 134.23 135.868 134.23 135.868 133.795C135.868 130.103 137.766 112.026 138.215 110.395L138.371 110.434C137.922 112.072 136.031 130.103 136.031 133.788C136.031 133.938 136.031 134.068 136.031 134.165C136.429 134.75 136.694 135.416 136.804 136.115C136.804 136.226 136.804 136.59 136.206 136.59C135.952 136.581 135.7 136.535 135.459 136.453C135.27 138.15 132.735 160.412 132.735 161.303L132.566 161.322Z" fill="#C4EDEF"/>
<path d="M135.381 101.6C135.364 101.601 135.347 101.596 135.333 101.587C135.319 101.578 135.308 101.564 135.303 101.548C135.303 101.392 138.956 100.391 141.354 100.391C141.861 100.391 141.9 100.391 141.9 100.482C141.901 100.492 141.9 100.503 141.896 100.513C141.893 100.523 141.887 100.532 141.88 100.539C141.872 100.547 141.863 100.553 141.853 100.556C141.843 100.56 141.833 100.561 141.822 100.56H141.354C139.327 100.652 137.32 101.001 135.381 101.6Z" fill="#548492"/>
<path d="M150 99.936H149.649C149.638 99.9369 149.627 99.9356 149.617 99.9321C149.607 99.9285 149.597 99.9229 149.59 99.9156C149.582 99.9083 149.575 99.8994 149.571 99.8895C149.567 99.8795 149.564 99.8688 149.564 99.858C149.564 99.8356 149.573 99.8141 149.589 99.7983C149.605 99.7824 149.627 99.7735 149.649 99.7735H150C151.735 99.8177 153.472 99.7591 155.2 99.598C155.2 99.598 155.284 99.598 155.284 99.676C155.297 99.8645 152.463 99.936 150 99.936Z" fill="#548492"/>
<path fill-rule="evenodd" clip-rule="evenodd" d="M148.57 93.5335H149.382C146.765 93.8531 144.176 94.3769 141.641 95.1C138.44 96.0819 135.303 97.2606 132.248 98.6295L132.281 97.9795C132.281 97.9795 141.446 93.5335 148.57 93.5335Z" fill="#548492"/>
<path fill-rule="evenodd" clip-rule="evenodd" d="M175.935 41.059C175.921 41.4415 175.787 41.8099 175.552 42.112C175.299 42.4578 175.114 42.8481 175.006 43.2625L175.584 42.9635L175.35 44.023L175.968 43.5225L176.156 44.0945C176.434 43.7072 176.674 43.2935 176.871 42.8595C177.081 42.3086 177.225 41.7348 177.3 41.15L176.793 41.943L176.605 41.033L176.169 41.7545L175.935 41.059Z" fill="#F6A65C"/>
<path fill-rule="evenodd" clip-rule="evenodd" d="M122.785 98.155C122.785 98.155 122.785 98.155 122.785 98.194C122.98 98.4085 123.403 99.1495 123.942 99.1495C124.019 99.1506 124.093 99.1227 124.15 99.0715L123.936 98.9415L124.618 98.7595L124.339 98.688C124.485 98.5901 124.622 98.4791 124.748 98.3565C124.559 98.4672 124.349 98.5359 124.131 98.558C123.922 98.5362 123.729 98.4364 123.591 98.2785L123.656 98.5645L123.175 98.2525L123.286 98.5385C123.126 98.402 122.959 98.274 122.785 98.155Z" fill="#F6A65C"/>
<path fill-rule="evenodd" clip-rule="evenodd" d="M123.181 97.9535H123.149C122.96 97.9535 122.629 97.401 122.629 97.401L122.947 97.661L123.032 97.4335L123.181 97.9535Z" fill="#F6A65C"/>
<path d="M128.192 198.827C127.698 198.827 127.613 198.827 127.613 198.736C127.615 198.715 127.625 198.695 127.64 198.68C127.656 198.666 127.676 198.658 127.698 198.658H128.211C132.716 198.658 151.806 197.397 152.008 197.358C152.019 197.357 152.029 197.358 152.04 197.362C152.05 197.365 152.059 197.371 152.067 197.378C152.075 197.386 152.081 197.395 152.086 197.405C152.09 197.414 152.092 197.425 152.092 197.436C152.099 197.65 131.682 198.827 128.192 198.827Z" fill="#AB4A55"/>
</svg>
